# xmcd
#
# Track frame offsets: 
#        150
#        13416
#        24598
#        37688
#        48918
#        59339
#        71750
#        83531
#        95042
#        106537
#        117292
#        128620
#        142773
#        157039
#        169152
#        179677
#        188670
#
# Disc length: 2686 seconds
#
# Revision: 1
# Processed by: cddbd v1.5.2PL0 Copyright (c) Steve Scherf et al.
# Submitted via: ExactAudioCopyFreeDBPlugin 1.0
#
DISCID=d90a7c11
DTITLE=Lucille Starr - 1964 - The French Song
DYEAR=1964
DGENRE=Country
TTITLE0=The French Song
TTITLE1=Dominique
TTITLE2=La Vie En Rose
TTITLE3=In A Little Spanish Town
TTITLE4=Colinda
TTITLE5=Crazy Arms
TTITLE6=Sukiyaka
TTITLE7=Wooden Heart
TTITLE8=Release Me
TTITLE9=Jolie Jacqueline
TTITLE10=Yours
TTITLE11=My Man
TTITLE12=Gone
TTITLE13=My Happiness
TTITLE14=Don't Let The Stars get In Your Eyes
TTITLE15=Freight Train
TTITLE16=I'm Leaving It All Up To You
EXTD=
EXTT0=
EXTT1=
EXTT2=
EXTT3=
EXTT4=
EXTT5=
EXTT6=
EXTT7=
EXTT8=
EXTT9=
EXTT10=
EXTT11=
EXTT12=
EXTT13=
EXTT14=
EXTT15=
EXTT16=
PLAYORDER=
